<?xml version="1.0" encoding="UTF-8"?>
<svg width="123.51mm" height="190.6mm" version="1.1" viewBox="0 0 123.51 190.6" xml:space="preserve" xmlns="http://www.w3.org/2000/svg"><g stroke="#000" stroke-dashoffset="7.4079"><path d="m61.4 190.6 62.109-35.858 0.13651-95.059-5.8079-10.06c-18.819 2.9825-28.111-2.7403-37.731-8.1631l20.302 5.9927 7.5826-28.618c-3.8758 2.6784-8.0377 4.6774-13.208 4.2805 4.6888 15.13-3.4654 16.661-15.287 14.309-13.218-5.6633-10.642-13.317-4.6474-21.402l-13.025-14.982-13.239 15.073c7.4347 9.5445 6.2203 16.852-5.2576 21.505-14.663 2.0421-17.521-4.3011-14.788-14.615-5.3945-0.2345-9.2621-2.3013-13.058-4.4537l7.6102 29.014 20.586-6.1956c-9.3005 6.0311-22.698 12.117-38.228 8.4224l-5.4314 9.4074v95.686z" fill="#ffd700"/><path d="m62.265 184.81c19.8-9.7897 39.268-19.845 55.663-32.359l-0.47391-98.696c-20.563 1.2198-38.863-3.7194-55.275-13.797-16.574 11.246-35.178 14.373-54.741 13.664l-0.46611 98.738c15.823 12.464 35.127 22.73 55.294 32.451z"/></g><g transform="translate(-41.455,-61.358)"><rect transform="rotate(-45)" x="14.999" y="123.58" width="7.8732" height="7.8732"/></g><g transform="translate(-41.455 -61.358)"><path d="m104.53 225.72 4.6962-0.0757 1.1362-7.5744 4.5447-0.98468 3.7115 6.514 8.7106-3.56-1.9694-7.3472 3.9387-2.954 6.0595 4.9234 6.211-6.3625-4.3932-5.8323 2.8783-4.3174 6.6655 1.7421 3.7115-8.1804-6.1353-3.7115 0.83319-4.7719 7.12-0.90893v-9.2408l-7.12-1.0604-0.98468-4.7719 6.3625-3.4085-3.4842-8.4834-6.9685 1.8936-2.8783-4.2417 4.3174-5.7566-6.1353-6.5898-5.9838 4.5446-4.0902-2.8025 1.8936-7.0442-8.4834-3.257-3.4085 5.908-4.9234-0.75744-1.0604-7.0442-9.4645-0.26957-0.74983 7.2305-4.6061 1.1248-3.9098-6.4807-8.5695 3.6956 1.9281 6.9627-3.7491 2.7851-5.9451-4.499-6.3736 6.4807 4.1776 5.6237-2.8922 4.1241-6.6949-1.9817-3.642 8.7302 5.1417 3.0529-1.1783 5.3024-5.838 0.80339 0.10712 9.5871 5.463 0.48203 1.6603 5.6773-5.3024 3.0529 3.642 8.623 6.2129-2.0353 3.3207 4.1776-4.1776 5.5702 6.4807 6.7485 5.6773-4.3919 4.0705 2.5173-1.9281 7.0163 8.7837 3.5885 3.5349-6.32 4.6061 0.80339 1.0712 7.5519z" fill="#ffd700"/></g><g transform="translate(-41.455 -61.358)"><circle cx="97.862" cy="176.94" r="36.66"/></g><g transform="translate(-41.455 -61.358)" fill="none" stroke="#ffd700" stroke-dashoffset="7.4079"><path d="m96.65 209.36c-43.041 0.60074-44.371-67.864 5.908-63.625" stroke-width="2.25"/><path d="m95.505 210.18 0.65198-4.4452" stroke-width="2.3757"/><path d="m79.634 205.22 2.8531-3.4705" stroke-width="2.3757"/><path d="m67.775 192.97 4.1855-1.6328" stroke-width="2.3757"/><path d="m64.086 176.34 4.4926 0.0254" stroke-width="2.3757"/><path d="m69.771 158.93 3.878 2.2683" stroke-width="2.3757"/><path d="m84.156 147.21 2.2243 3.9034" stroke-width="2.3757"/><path d="m102.67 144.57-0.25674 4.4854" stroke-width="2.3757"/></g><g transform="translate(-41.455 -61.358)"><path d="m89.337 204.7c-12.015-5.6126-25.91-29.659 0-43.276l-2.5708-9.3193c-22.869 11.705-23.307 39.142 2.5708 52.595z" fill="#ff5967"/><path d="m82.374 200.2c-14.218-9.0052-19.418-33.422 1.3622-46.29-13.984 13.743-15.362 29.121-1.3622 46.29z" fill="#fd2020" stroke="#000" stroke-width=".5"/></g><g transform="translate(-41.455,-61.358)"><path d="m101.61 177.64a5.2096 5.2096 0 0 1-4.4749 5.1575 5.2096 5.2096 0 0 1-5.737-3.7028 5.2096 5.2096 0 0 1 2.8568-6.2019l2.1456 4.7472z" fill="none" stroke="#fd2020" stroke-dashoffset="7.4079" stroke-width="1.4406"/><path d="m92.829 174.77-4.7645-22.514 0.87698-0.22252 7.0813 19.595z" fill="#fd2020" stroke="#000" stroke-width=".5"/></g><g transform="translate(-41.455 -61.358)" fill="#ffd700"><path d="m91.52 181.37 8.4819-21.99 25.027 0.20943-1.8849 6.9112-18.744 0.31414-2.8273 7.5394c2.5508-0.87808 5.4902-2.2054 8.2806-1.8321 14.622 1.956 12.891 15.353 5.6426 22.562-9.7216 9.6692-28.835 10.93-27.536-5.8608l8.3772-0.31415c2.3241 10.735 12.726 5.473 15.1-0.82736 2.0044-5.3199-1.5811-14.153-11.477-6.743z" display="none"/><text transform="scale(1.157 .86432)" x="72.737068" y="234.10767" font-family="Rockwell" font-size="72.332px" stroke-dashoffset="7.4079" stroke-width="5.6954" xml:space="preserve"><tspan x="72.737068" y="234.10767" font-family="arial" font-stretch="condensed" font-style="italic" font-weight="bold" stroke-width="5.6954">5</tspan></text></g></svg>